<svg width="36" height="22" viewBox="0 0 36 22" fill="none" xmlns="http://www.w3.org/2000/svg">
<path d="M0.563477 20.5C0.563477 19.6716 1.23505 19 2.06348 19H33.8616C34.69 19 35.3616 19.6716 35.3616 20.5V20.5C35.3616 21.3284 34.69 22 33.8616 22H2.06348C1.23505 22 0.563477 21.3284 0.563477 20.5V20.5Z" fill="#FFC725"/>
<path d="M0.563477 11.5C0.563477 10.6716 1.23505 10 2.06348 10H33.8616C34.69 10 35.3616 10.6716 35.3616 11.5V11.5C35.3616 12.3284 34.69 13 33.8616 13H2.06348C1.23505 13 0.563477 12.3284 0.563477 11.5V11.5Z" fill="#FFC725"/>
<path d="M0.563477 1.5C0.563477 0.671573 1.23505 0 2.06348 0H33.8616C34.69 0 35.3616 0.671573 35.3616 1.5V1.5C35.3616 2.32843 34.69 3 33.8616 3H2.06348C1.23505 3 0.563477 2.32843 0.563477 1.5V1.5Z" fill="#FFC725"/>
</svg>
